<svg width="372" height="256" viewBox="0 0 372 256" fill="none" xmlns="http://www.w3.org/2000/svg">
<path opacity="0.1" d="M551.294 234.004C515.189 240.579 437.625 239.933 416.203 184.75C389.427 115.772 430.197 86.2586 345.156 44.814C260.115 3.36937 254.44 57.2006 164.193 -37.8104C73.9455 -132.821 68.4936 -160.751 91.1296 -183.467C109.238 -201.64 419.996 -33.6921 573.111 52.5533L551.294 234.004Z" fill="#B0BDF6"/>
<path opacity="0.2" d="M196.804 -16.4056C204.024 -2.86752 227.965 25.1321 265.963 28.8254C313.461 33.4421 358.512 21.3017 378.177 32.4163C397.841 43.5309 403.415 118.744 459.038 141.988C477.611 148.339 521.953 155.818 550.734 134.924C586.709 108.807 585.654 8.23721 502.533 4.36334C419.411 0.489456 386.695 26.8099 365.423 8.68851C344.151 -9.43285 340.491 -72.3821 309.358 -76.5739C278.224 -80.7658 160.024 -78.4001 196.804 -16.4056Z" fill="#FF9351"/>
</svg>
