<svg width="451" height="227" viewBox="0 0 451 227" fill="none" xmlns="http://www.w3.org/2000/svg">
<path opacity="0.1" d="M565.596 197.517C530.409 207.943 453.227 215.656 425.986 163.101C391.935 97.4082 429.289 63.6752 340.278 31.632C251.268 -0.411139 251.425 53.7181 151.468 -31.0189C51.5118 -115.756 43.0831 -142.936 63.1405 -167.958C79.1864 -187.975 406.226 -54.4787 567.741 14.7719L565.596 197.517Z" fill="#B0BDF6"/>
<path opacity="0.2" d="M276.312 -13.9063C280.034 0.978731 296.47 33.9483 332.438 46.7462C377.398 62.7435 424.049 61.8907 440.431 77.4422C456.813 92.9937 443.981 167.314 492.307 203.352C508.786 214.018 549.99 232.027 582.978 218.736C624.214 202.123 647.579 104.299 567.878 80.3837C488.177 56.4681 450.055 74.0689 433.812 51.3299C417.57 28.5908 429.285 -33.3668 400.097 -44.9836C370.91 -56.6004 255.664 -82.9695 276.312 -13.9063Z" fill="#FF9351"/>
</svg>
