<svg width="417" height="295" viewBox="0 0 417 295" fill="none" xmlns="http://www.w3.org/2000/svg">
<path opacity="0.1" d="M495.495 274.994C458.873 272.618 383.781 253.181 376.381 194.451C367.132 121.038 413.842 102.293 341.39 41.4623C268.938 -19.3681 250.378 31.4801 185.865 -82.5803C121.353 -196.641 122.837 -225.059 150.306 -241.607C172.281 -254.846 433.034 -16.5513 560.663 104.251L495.495 274.994Z" fill="#B0BDF6"/>
<path opacity="0.2" d="M212.312 -53.9063C216.034 -39.0213 232.47 -6.05171 268.438 6.74618C313.398 22.7435 360.049 21.8907 376.431 37.4422C392.813 52.9937 379.981 127.314 428.307 163.352C444.786 174.018 485.99 192.027 518.978 178.736C560.214 162.123 583.579 64.2994 503.878 40.3837C424.177 16.4681 386.055 34.0689 369.812 11.3299C353.57 -11.4092 365.285 -73.3668 336.097 -84.9836C306.91 -96.6004 191.664 -122.97 212.312 -53.9063Z" fill="#FF9351"/>
</svg>
