<svg width="40" height="40" viewBox="0 0 40 40" fill="none" xmlns="http://www.w3.org/2000/svg">
<circle cx="20" cy="20" r="20" fill="#FF9351"/>
<path d="M20.5 23C20.5 22.7239 20.2761 22.5 20 22.5C19.7239 22.5 19.5 22.7239 19.5 23L20.5 23ZM19.6464 36.3536C19.8417 36.5488 20.1583 36.5488 20.3536 36.3536L23.5355 33.1716C23.7308 32.9763 23.7308 32.6597 23.5355 32.4645C23.3403 32.2692 23.0237 32.2692 22.8284 32.4645L20 35.2929L17.1716 32.4645C16.9763 32.2692 16.6597 32.2692 16.4645 32.4645C16.2692 32.6597 16.2692 32.9763 16.4645 33.1716L19.6464 36.3536ZM19.5 23L19.5 36L20.5 36L20.5 23L19.5 23Z" fill="white"/>
<path d="M20.5 16C20.5 16.2761 20.2761 16.5 20 16.5C19.7239 16.5 19.5 16.2761 19.5 16L20.5 16ZM19.6464 2.64645C19.8417 2.45118 20.1583 2.45118 20.3536 2.64645L23.5355 5.82843C23.7308 6.02369 23.7308 6.34027 23.5355 6.53553C23.3403 6.7308 23.0237 6.7308 22.8284 6.53553L20 3.70711L17.1716 6.53553C16.9763 6.7308 16.6597 6.7308 16.4645 6.53553C16.2692 6.34027 16.2692 6.02369 16.4645 5.82843L19.6464 2.64645ZM19.5 16L19.5 3L20.5 3L20.5 16L19.5 16Z" fill="white"/>
<path d="M23.5 19C23.2239 19 23 19.2239 23 19.5C23 19.7761 23.2239 20 23.5 20L23.5 19ZM36.8536 19.8536C37.0488 19.6583 37.0488 19.3417 36.8536 19.1464L33.6716 15.9645C33.4763 15.7692 33.1597 15.7692 32.9645 15.9645C32.7692 16.1597 32.7692 16.4763 32.9645 16.6716L35.7929 19.5L32.9645 22.3284C32.7692 22.5237 32.7692 22.8403 32.9645 23.0355C33.1597 23.2308 33.4763 23.2308 33.6716 23.0355L36.8536 19.8536ZM23.5 20L36.5 20L36.5 19L23.5 19L23.5 20Z" fill="white"/>
<path d="M16.5 19C16.7761 19 17 19.2239 17 19.5C17 19.7761 16.7761 20 16.5 20L16.5 19ZM3.14645 19.8536C2.95118 19.6583 2.95118 19.3417 3.14645 19.1464L6.32843 15.9645C6.52369 15.7692 6.84027 15.7692 7.03553 15.9645C7.2308 16.1597 7.2308 16.4763 7.03553 16.6716L4.20711 19.5L7.03553 22.3284C7.2308 22.5237 7.2308 22.8403 7.03553 23.0355C6.84027 23.2308 6.52369 23.2308 6.32843 23.0355L3.14645 19.8536ZM16.5 20L3.5 20L3.5 19L16.5 19L16.5 20Z" fill="white"/>
</svg>
