<svg width="40" height="40" viewBox="0 0 40 40" fill="none" xmlns="http://www.w3.org/2000/svg">
<circle cx="20" cy="20" r="20" fill="#FF9351"/>
<path d="M20.5 5C20.5 4.72386 20.2761 4.5 20 4.5C19.7239 4.5 19.5 4.72386 19.5 5L20.5 5ZM19.6464 18.3536C19.8417 18.5488 20.1583 18.5488 20.3536 18.3536L23.5355 15.1716C23.7308 14.9763 23.7308 14.6597 23.5355 14.4645C23.3403 14.2692 23.0237 14.2692 22.8284 14.4645L20 17.2929L17.1716 14.4645C16.9763 14.2692 16.6597 14.2692 16.4645 14.4645C16.2692 14.6597 16.2692 14.9763 16.4645 15.1716L19.6464 18.3536ZM19.5 5L19.5 18L20.5 18L20.5 5L19.5 5Z" fill="white"/>
<path d="M20.5 35C20.5 35.2761 20.2761 35.5 20 35.5C19.7239 35.5 19.5 35.2761 19.5 35L20.5 35ZM19.6464 21.6464C19.8417 21.4512 20.1583 21.4512 20.3536 21.6464L23.5355 24.8284C23.7308 25.0237 23.7308 25.3403 23.5355 25.5355C23.3403 25.7308 23.0237 25.7308 22.8284 25.5355L20 22.7071L17.1716 25.5355C16.9763 25.7308 16.6597 25.7308 16.4645 25.5355C16.2692 25.3403 16.2692 25.0237 16.4645 24.8284L19.6464 21.6464ZM19.5 35L19.5 22L20.5 22L20.5 35L19.5 35Z" fill="white"/>
</svg>
