<svg width="40" height="40" viewBox="0 0 40 40" fill="none" xmlns="http://www.w3.org/2000/svg">
<circle cx="20" cy="20" r="20" fill="#FF9351"/>
<path d="M8.35355 20.1464C8.15829 19.9512 7.84171 19.9512 7.64645 20.1464L4.46447 23.3284C4.2692 23.5237 4.2692 23.8403 4.46447 24.0355C4.65973 24.2308 4.97631 24.2308 5.17157 24.0355L8 21.2071L10.8284 24.0355C11.0237 24.2308 11.3403 24.2308 11.5355 24.0355C11.7308 23.8403 11.7308 23.5237 11.5355 23.3284L8.35355 20.1464ZM19.5 8.5C19.2239 8.5 19 8.72386 19 9C19 9.27614 19.2239 9.5 19.5 9.5V8.5ZM30.5 20.5C30.5 26.5751 25.5751 31.5 19.5 31.5V32.5C26.1274 32.5 31.5 27.1274 31.5 20.5H30.5ZM19.5 31.5C13.4249 31.5 8.5 26.5751 8.5 20.5H7.5C7.5 27.1274 12.8726 32.5 19.5 32.5V31.5ZM19.5 9.5C25.5751 9.5 30.5 14.4249 30.5 20.5H31.5C31.5 13.8726 26.1274 8.5 19.5 8.5V9.5Z" fill="white"/>
</svg>
